<svg xmlns="http://www.w3.org/2000/svg" width="760" height="278" viewBox="0 0 760 278" role="img" aria-label="Centcom client: 29% built">
<defs>
<pattern id="s" width="24" height="24" patternUnits="userSpaceOnUse" patternTransform="rotate(45)"><rect width="12" height="24" fill="#fff" fill-opacity=".16"/></pattern>
<clipPath id="c"><rect x="24" y="52" width="712" height="26" rx="2"/></clipPath>
</defs>
<style>@keyframes mv{to{transform:translateX(24px)}}
.st{animation:mv .9s linear infinite}text{font-family:ui-sans-serif,system-ui,-apple-system,"Segoe UI",sans-serif}
@media (prefers-reduced-motion:reduce){.st{animation:none}}</style>
<rect width="760" height="278" rx="4" fill="#101012"/><rect x=".5" y=".5" width="759" height="277" rx="3.5" fill="none" stroke="#34343B"/>
<text x="24" y="34" fill="#ECECEF" font-size="16" font-weight="700">Centcom client</text>
<text x="736" y="34" fill="#ECECEF" font-size="16" font-weight="700" text-anchor="end">29% built</text>
<rect x="24" y="52" width="712" height="26" rx="2" fill="#1B1B1F"/>
<clipPath id="cf"><rect x="24" y="52" width="208.0" height="26" rx="2"/></clipPath><g clip-path="url(#cf)"><rect x="24" y="52" width="208.0" height="26" fill="#7C5CFF"/><rect x="0" y="52" width="256.0" height="26" fill="url(#s)" class="st"/></g>
<rect x="230.0" y="52" width="3" height="26" fill="#ECECEF"/>
<text x="24" y="100" fill="#B6B6BE" font-size="12">Plan and contracts 100% · implementation by lane size · updated from plan/STATUS.json</text>
<text x="24" y="125" fill="#B6B6BE" font-size="11">M0</text><text x="64" y="125" fill="#8A8A94" font-size="11">Contracts and scaffolding</text>
<rect x="270" y="117" width="350" height="8" rx="1" fill="#1B1B1F"/>
<rect x="270" y="117" width="96.9" height="8" rx="1" fill="#7C5CFF"/>
<text x="736" y="125" fill="#D4D4DA" font-size="11" text-anchor="end">28% · 1/12 lanes</text>
<text x="24" y="145" fill="#B6B6BE" font-size="11">M1</text><text x="64" y="145" fill="#8A8A94" font-size="11">Solo agent in the terminal</text>
<rect x="270" y="137" width="350" height="8" rx="1" fill="#1B1B1F"/>
<rect x="270" y="137" width="232.2" height="8" rx="1" fill="#7C5CFF"/>
<text x="736" y="145" fill="#D4D4DA" font-size="11" text-anchor="end">66% · 13/39 lanes</text>
<text x="24" y="165" fill="#B6B6BE" font-size="11">M2</text><text x="64" y="165" fill="#8A8A94" font-size="11">LAN multiplayer</text>
<rect x="270" y="157" width="350" height="8" rx="1" fill="#1B1B1F"/>
<rect x="270" y="157" width="1.8" height="8" rx="1" fill="#7C5CFF"/>
<text x="736" y="165" fill="#D4D4DA" font-size="11" text-anchor="end">1% · 0/17 lanes</text>
<text x="24" y="185" fill="#B6B6BE" font-size="11">M3</text><text x="64" y="185" fill="#8A8A94" font-size="11">Accounts and relay</text>
<rect x="270" y="177" width="350" height="8" rx="1" fill="#1B1B1F"/>
<text x="736" y="185" fill="#D4D4DA" font-size="11" text-anchor="end">0% · 0/3 lanes</text>
<text x="24" y="205" fill="#B6B6BE" font-size="11">M4</text><text x="64" y="205" fill="#8A8A94" font-size="11">Teams and money</text>
<rect x="270" y="197" width="350" height="8" rx="1" fill="#1B1B1F"/>
<rect x="270" y="197" width="64.2" height="8" rx="1" fill="#7C5CFF"/>
<text x="736" y="205" fill="#D4D4DA" font-size="11" text-anchor="end">18% · 1/11 lanes</text>
<text x="24" y="225" fill="#B6B6BE" font-size="11">M5</text><text x="64" y="225" fill="#8A8A94" font-size="11">Fleet and polish</text>
<rect x="270" y="217" width="350" height="8" rx="1" fill="#1B1B1F"/>
<text x="736" y="225" fill="#D4D4DA" font-size="11" text-anchor="end">0% · 0/14 lanes</text>
<text x="24" y="245" fill="#B6B6BE" font-size="11">M6</text><text x="64" y="245" fill="#8A8A94" font-size="11">Launch</text>
<rect x="270" y="237" width="350" height="8" rx="1" fill="#1B1B1F"/>
<rect x="270" y="237" width="20.2" height="8" rx="1" fill="#7C5CFF"/>
<text x="736" y="245" fill="#D4D4DA" font-size="11" text-anchor="end">6% · 0/8 lanes</text>
<text x="24" y="265" fill="#B6B6BE" font-size="11">Later</text><text x="64" y="265" fill="#8A8A94" font-size="11">After launch</text>
<rect x="270" y="257" width="350" height="8" rx="1" fill="#1B1B1F"/>
<text x="736" y="265" fill="#D4D4DA" font-size="11" text-anchor="end">0% · 0/1 lanes</text>
</svg>
